<svg width="32" height="32" viewBox="0 0 32 32" fill="none" xmlns="http://www.w3.org/2000/svg">
<mask id="mask0_478_604" style="mask-type:alpha" maskUnits="userSpaceOnUse" x="0" y="0" width="32" height="32">
<rect y="32" width="32" height="32" transform="rotate(-90 0 32)" fill="#D9D9D9"/>
</mask>
<g mask="url(#mask0_478_604)">
<path d="M15.9999 14.7383L10.5693 20.1693C10.3846 20.3538 10.1525 20.4482 9.87293 20.4527C9.5936 20.4569 9.35727 20.3624 9.16393 20.1693C8.97082 19.976 8.87427 19.7418 8.87427 19.4667C8.87427 19.1915 8.97082 18.9573 9.16393 18.764L15.1563 12.7717C15.2812 12.647 15.4128 12.559 15.5513 12.5077C15.6897 12.4563 15.8393 12.4307 15.9999 12.4307C16.1606 12.4307 16.3102 12.4563 16.4486 12.5077C16.587 12.559 16.7187 12.647 16.8436 12.7717L22.8359 18.764C23.0204 18.9487 23.1148 19.1808 23.1193 19.4603C23.1235 19.7397 23.029 19.976 22.8359 20.1693C22.6426 20.3624 22.4084 20.459 22.1333 20.459C21.8582 20.459 21.6239 20.3624 21.4306 20.1693L15.9999 14.7383Z" fill="#032C28"/>
</g>
</svg>
